<svg width="4731" height="1000" viewBox="0 0 4731 1000" fill="none" xmlns="http://www.w3.org/2000/svg">
<path d="M1227.49 614.858C1227.15 604.607 1221.68 599.481 1211.09 599.481H1206.99C1196.74 599.481 1191.27 604.607 1190.59 614.858L1187 663.553C1186.66 673.805 1181.19 678.93 1170.6 678.93H1036.81C1026.56 678.93 1022.46 673.975 1024.51 664.066L1093.71 334.991C1095.76 325.081 1101.91 320.126 1112.16 320.126H1305.92C1316.17 320.126 1322.32 325.081 1324.37 334.991L1393.57 664.066C1395.62 673.975 1391.52 678.93 1381.27 678.93H1247.48C1237.23 678.93 1231.76 673.805 1231.08 663.553L1227.49 614.858ZM1217.24 476.462C1216.9 471.336 1214.17 468.773 1209.04 468.773C1204.26 468.773 1201.52 471.336 1200.84 476.462L1196.74 534.896C1196.06 543.781 1200.16 548.223 1209.04 548.223C1217.93 548.223 1222.03 543.781 1221.34 534.896L1217.24 476.462Z" fill="#231F20"/>
<path d="M1600.28 320.126C1650.17 320.126 1688.62 328.327 1715.61 344.73C1742.95 361.132 1756.62 387.103 1756.62 422.641C1756.62 452.371 1743.46 474.924 1717.15 490.302C1714.42 492.01 1712.71 493.548 1712.02 494.915C1711.34 495.94 1711 497.307 1711 499.015C1711 500.724 1711.34 502.262 1712.02 503.629C1713.05 504.996 1714.93 506.533 1717.66 508.242C1747.05 524.303 1761.74 547.027 1761.74 576.415C1761.74 594.184 1757.98 609.561 1750.47 622.547C1742.95 635.532 1732.19 646.296 1718.17 654.839C1704.16 663.04 1687.25 669.191 1667.43 673.292C1647.61 677.051 1625.23 678.93 1600.28 678.93H1425.49C1415.24 678.93 1410.12 673.805 1410.12 663.553V335.503C1410.12 325.252 1415.24 320.126 1425.49 320.126H1600.28ZM1595.16 473.899C1600.62 473.899 1604.55 472.532 1606.95 469.799C1609.34 467.065 1610.53 463.989 1610.53 460.572C1610.53 457.497 1609.34 454.763 1606.95 452.371C1604.55 449.637 1600.62 448.27 1595.16 448.27H1566.45C1557.91 448.27 1553.64 452.542 1553.64 461.085C1553.64 469.628 1557.91 473.899 1566.45 473.899H1595.16ZM1600.28 550.786C1605.75 550.786 1609.68 549.59 1612.07 547.198C1614.46 544.464 1615.66 541.559 1615.66 538.484C1615.66 535.067 1614.46 531.991 1612.07 529.258C1609.68 526.524 1605.75 525.157 1600.28 525.157H1566.45C1557.91 525.157 1553.64 529.428 1553.64 537.971C1553.64 546.514 1557.91 550.786 1566.45 550.786H1600.28Z" fill="#231F20"/>
<path d="M1968.33 614.858C1967.99 604.607 1962.52 599.481 1951.93 599.481H1947.83C1937.57 599.481 1932.11 604.607 1931.42 614.858L1927.84 663.553C1927.49 673.805 1922.03 678.93 1911.43 678.93H1777.65C1767.4 678.93 1763.3 673.975 1765.35 664.066L1834.55 334.991C1836.6 325.081 1842.75 320.126 1853 320.126H2046.75C2057 320.126 2063.16 325.081 2065.21 334.991L2134.4 664.066C2136.45 673.975 2132.35 678.93 2122.1 678.93H1988.32C1978.07 678.93 1972.6 673.805 1971.92 663.553L1968.33 614.858ZM1958.08 476.462C1957.74 471.336 1955 468.773 1949.88 468.773C1945.09 468.773 1942.36 471.336 1941.67 476.462L1937.57 534.896C1936.89 543.781 1940.99 548.223 1949.88 548.223C1958.76 548.223 1962.86 543.781 1962.18 534.896L1958.08 476.462Z" fill="#231F20"/>
<path d="M2323.55 471.336C2319.79 459.376 2312.44 453.396 2301.51 453.396C2293.65 453.396 2287.5 457.497 2283.06 465.698C2278.61 473.899 2276.39 485.005 2276.39 499.015C2276.39 513.368 2279.3 524.815 2285.11 533.358C2291.26 541.559 2299.46 545.66 2309.71 545.66C2324.4 545.66 2334.14 539.338 2338.93 526.695C2342.69 516.785 2349.01 511.83 2357.89 511.83H2473.73C2484.33 511.83 2489.11 516.956 2488.09 527.207C2485.69 554.203 2479.71 577.611 2470.15 597.43C2460.92 617.25 2448.62 633.653 2433.24 646.638C2417.86 659.282 2399.75 668.679 2378.91 674.83C2358.4 680.981 2335.34 684.056 2309.71 684.056C2283.74 684.056 2259.65 680.468 2237.44 673.292C2215.57 666.116 2196.6 655.01 2180.54 639.974C2164.82 624.597 2152.52 605.29 2143.63 582.053C2134.75 558.816 2130.31 531.308 2130.31 499.528C2130.31 467.748 2134.58 440.24 2143.12 417.003C2151.66 393.766 2163.45 374.63 2178.49 359.594C2193.87 344.559 2211.98 333.453 2232.82 326.277C2254.01 318.759 2277.08 315 2302.02 315C2326.28 315 2348.32 318.075 2368.14 324.226C2387.96 330.377 2405.22 339.945 2419.91 352.931C2434.61 365.574 2446.4 381.806 2455.28 401.626C2464.17 421.104 2469.8 444.17 2472.2 470.824C2473.22 481.075 2468.44 486.201 2457.84 486.201H2342C2333.12 486.201 2326.97 481.246 2323.55 471.336Z" fill="#231F20"/>
<path d="M2682.63 614.858C2682.29 604.607 2676.82 599.481 2666.23 599.481H2662.13C2651.88 599.481 2646.41 604.607 2645.73 614.858L2642.14 663.553C2641.8 673.805 2636.33 678.93 2625.74 678.93H2491.96C2481.7 678.93 2477.6 673.975 2479.65 664.066L2548.85 334.991C2550.9 325.081 2557.05 320.126 2567.3 320.126H2761.06C2771.31 320.126 2777.46 325.081 2779.51 334.991L2848.71 664.066C2850.76 673.975 2846.66 678.93 2836.41 678.93H2702.62C2692.37 678.93 2686.91 673.805 2686.22 663.553L2682.63 614.858ZM2672.38 476.462C2672.04 471.336 2669.31 468.773 2664.18 468.773C2659.4 468.773 2656.66 471.336 2655.98 476.462L2651.88 534.896C2651.2 543.781 2655.3 548.223 2664.18 548.223C2673.07 548.223 2677.17 543.781 2676.48 534.896L2672.38 476.462Z" fill="#231F20"/>
<path d="M3076.3 550.786C3063.65 550.786 3057.33 557.108 3057.33 569.751V663.553C3057.33 673.805 3052.21 678.93 3041.96 678.93H2929.19C2918.94 678.93 2913.81 673.805 2913.81 663.553V569.751C2913.81 557.108 2907.49 550.786 2894.85 550.786H2857.43C2847.18 550.786 2842.05 545.66 2842.05 535.409V335.503C2842.05 325.252 2847.18 320.126 2857.43 320.126H3113.72C3123.97 320.126 3129.09 325.252 3129.09 335.503V535.409C3129.09 545.66 3123.97 550.786 3113.72 550.786H3076.3Z" fill="#231F20"/>
<path d="M3306.41 545.66C3297.87 545.66 3293.6 549.932 3293.6 558.475C3293.6 567.018 3297.87 571.289 3306.41 571.289H3411.49C3421.74 571.289 3426.87 576.415 3426.87 586.666V663.553C3426.87 673.805 3421.74 678.93 3411.49 678.93H3165.45C3155.2 678.93 3150.08 673.805 3150.08 663.553V335.503C3150.08 325.252 3155.2 320.126 3165.45 320.126H3411.49C3421.74 320.126 3426.87 325.252 3426.87 335.503V412.39C3426.87 422.641 3421.74 427.767 3411.49 427.767H3306.41C3297.87 427.767 3293.6 432.039 3293.6 440.582C3293.6 449.125 3297.87 453.396 3306.41 453.396H3396.11C3406.37 453.396 3411.49 458.522 3411.49 468.773V530.283C3411.49 540.534 3406.37 545.66 3396.11 545.66H3306.41Z" fill="#231F20"/>
<path d="M3623.58 320.126C3648.53 320.126 3670.91 322.86 3690.73 328.327C3710.55 333.795 3727.47 342.337 3741.48 353.956C3755.49 365.574 3766.25 380.268 3773.77 398.038C3781.29 415.465 3785.05 436.481 3785.05 461.085C3785.05 485.688 3781.29 506.875 3773.77 524.644C3766.25 542.414 3755.49 557.108 3741.48 568.726C3727.47 580.003 3710.55 588.375 3690.73 593.842C3670.91 599.31 3648.53 602.044 3623.58 602.044H3612.82C3602.57 602.044 3597.44 607.169 3597.44 617.421V663.553C3597.44 673.805 3592.32 678.93 3582.06 678.93H3469.3C3459.05 678.93 3453.92 673.805 3453.92 663.553V335.503C3453.92 325.252 3459.05 320.126 3469.3 320.126H3623.58ZM3623.58 473.899C3629.05 473.899 3632.98 472.532 3635.37 469.799C3637.76 467.065 3638.96 463.989 3638.96 460.572C3638.96 457.497 3637.76 454.763 3635.37 452.371C3632.98 449.637 3629.05 448.27 3623.58 448.27H3610.26C3601.71 448.27 3597.44 452.542 3597.44 461.085C3597.44 469.628 3601.71 473.899 3610.26 473.899H3623.58Z" fill="#99FF78"/>
<path d="M3971.09 614.858C3970.75 604.607 3965.28 599.481 3954.68 599.481H3950.58C3940.33 599.481 3934.86 604.607 3934.18 614.858L3930.59 663.553C3930.25 673.805 3924.78 678.93 3914.19 678.93H3780.41C3770.16 678.93 3766.06 673.975 3768.11 664.066L3837.3 334.991C3839.35 325.081 3845.51 320.126 3855.76 320.126H4049.51C4059.76 320.126 4065.91 325.081 4067.96 334.991L4137.16 664.066C4139.21 673.975 4135.11 678.93 4124.86 678.93H3991.08C3980.83 678.93 3975.36 673.805 3974.68 663.553L3971.09 614.858ZM3960.84 476.462C3960.49 471.336 3957.76 468.773 3952.63 468.773C3947.85 468.773 3945.12 471.336 3944.43 476.462L3940.33 534.896C3939.65 543.781 3943.75 548.223 3952.63 548.223C3961.52 548.223 3965.62 543.781 3964.94 534.896L3960.84 476.462Z" fill="#99FF78"/>
<path d="M4192.48 597.943C4192.48 585.983 4190.09 573.852 4185.31 561.55L4092.53 334.478C4088.43 324.91 4091.68 320.126 4102.27 320.126H4230.93C4240.84 320.126 4246.31 325.252 4247.33 335.503L4252.97 404.701C4253.65 413.244 4257.41 417.516 4264.25 417.516C4271.08 417.516 4274.84 413.244 4275.52 404.701L4281.16 335.503C4282.19 325.252 4287.65 320.126 4297.56 320.126H4426.22C4436.81 320.126 4440.06 324.91 4435.96 334.478L4343.18 561.55C4338.4 573.852 4336.01 585.983 4336.01 597.943V663.553C4336.01 673.805 4330.88 678.93 4320.63 678.93H4207.86C4197.61 678.93 4192.48 673.805 4192.48 663.553V597.943Z" fill="#99FF78"/>
<path d="M764.124 589.748C767.628 550.025 756.897 511.562 786.242 483.398L804.418 465.955C829.237 442.077 843.175 409.727 843.175 375.999C843.175 342.271 829.237 309.921 804.418 286.044L763.684 246.952L734.339 275.115C701.71 275.956 669.301 288.356 644.337 312.316L639.736 316.52C610.444 344.635 571.738 361.906 530.463 365.28C475.714 369.693 424.471 392.602 385.491 430.015C354.612 459.603 333.211 497.062 323.819 537.961C314.428 578.857 317.438 621.481 332.496 660.786L317.604 675.077L373.447 728.673C394.679 749.065 419.89 765.244 447.639 776.281C475.387 787.318 505.131 793 535.17 793C565.208 793 594.952 787.318 622.7 776.281C650.451 765.244 675.661 749.065 696.894 728.673C735.654 691.471 759.523 642.291 764.124 589.748Z" fill="#114123"/>
<path d="M669.98 238.085C693.397 238.103 716.284 245.064 735.749 258.09C755.214 271.117 770.385 289.623 779.348 311.274C788.31 332.923 790.659 356.746 786.101 379.732C781.54 402.718 770.277 423.836 753.731 440.418L749.589 444.565C723.386 470.765 707.314 505.41 704.224 542.349C700.056 591.315 678.738 637.235 644.026 671.999C625.062 691.045 602.526 706.151 577.711 716.452C552.894 726.75 526.29 732.044 499.425 732.022C447.079 732.022 394.735 711.943 354.822 671.999C335.841 653.013 320.784 630.472 310.511 605.66C300.238 580.848 294.951 554.254 294.951 527.397C294.951 500.54 300.238 473.948 310.511 449.137C320.784 424.325 335.841 401.781 354.822 382.795C389.538 348.029 435.435 326.687 484.374 322.555C521.234 319.499 555.912 303.347 582.084 277.155L586.228 273.008C597.174 261.915 610.215 253.114 624.595 247.118C638.975 241.122 654.404 238.051 669.98 238.085ZM669.98 206C629.849 206 591.901 221.715 563.545 250.09L559.62 254.237C538.901 274.972 511.201 287.85 481.758 290.469C425.269 295.271 372.27 319.935 332.357 359.879C310.332 381.825 292.864 407.913 280.96 436.646C269.057 465.379 262.953 496.186 263 527.289C263 590.585 287.646 649.954 332.357 694.698C377.068 739.445 436.392 764.108 499.642 764.108C562.891 764.108 622.217 739.445 666.928 694.698C706.84 654.756 731.703 601.501 736.502 545.186C738.94 515.733 751.775 488.11 772.708 467.265L776.852 463.118C790.854 449.151 801.956 432.549 809.515 414.267C817.077 395.987 820.949 376.389 820.908 356.603C820.908 316.443 805.205 278.465 776.852 250.09C748.473 221.803 710.034 205.945 669.98 206Z" fill="#337D63"/>
<path d="M749.814 444.568L753.956 440.42C764.957 429.416 773.683 416.348 779.635 401.967C785.589 387.586 788.653 372.172 788.653 356.606C788.653 341.04 785.589 325.627 779.635 311.246C773.683 296.864 764.957 283.798 753.956 272.792C742.96 261.784 729.901 253.052 715.531 247.094C701.161 241.136 685.761 238.07 670.204 238.07C654.65 238.07 639.247 241.136 624.877 247.094C610.507 253.052 597.451 261.784 586.453 272.792L582.311 276.939C556.129 303.16 521.509 319.246 484.601 322.339C435.659 326.471 389.762 347.813 355.046 382.581C336.066 401.567 321.009 424.11 310.736 448.92C300.463 473.732 295.176 500.326 295.176 527.183C295.176 554.04 300.463 580.634 310.736 605.443C321.009 630.255 336.066 652.799 355.046 671.784C374.018 690.78 396.544 705.847 421.337 716.127C446.129 726.408 472.702 731.7 499.539 731.7C526.375 731.7 552.95 726.408 577.743 716.127C602.534 705.847 625.06 690.78 644.032 671.784C678.774 637.042 700.1 591.111 704.23 542.135C707.5 505.466 723.642 470.76 749.814 444.568Z" fill="#89BA4F"/>
<path d="M749.814 444.568L753.956 440.42C764.957 429.416 773.683 416.348 779.635 401.967C785.589 387.586 788.653 372.172 788.653 356.606C788.653 341.04 785.589 325.627 779.635 311.246C773.683 296.864 764.957 283.798 753.956 272.792C742.96 261.784 729.901 253.052 715.531 247.094C701.161 241.136 685.761 238.07 670.204 238.07C654.65 238.07 639.247 241.136 624.877 247.094C610.507 253.052 597.451 261.784 586.453 272.792L582.311 276.939C556.129 303.16 521.509 319.246 484.601 322.339C435.659 326.471 389.762 347.813 355.046 382.581C336.066 401.567 321.009 424.11 310.736 448.92C300.463 473.732 295.176 500.326 295.176 527.183C295.176 554.04 300.463 580.634 310.736 605.443C321.009 630.255 336.066 652.799 355.046 671.784C374.018 690.78 396.544 705.847 421.337 716.127C446.129 726.408 472.702 731.7 499.539 731.7C526.375 731.7 552.95 726.408 577.743 716.127C602.534 705.847 625.06 690.78 644.032 671.784C678.774 637.042 700.1 591.111 704.23 542.135C707.5 505.466 723.642 470.76 749.814 444.568Z" fill="#99FF78"/>
<path d="M509.235 613.941C534.457 613.941 558.643 603.915 576.477 586.068C594.31 568.221 604.329 544.016 604.329 518.778C604.329 493.537 594.31 469.332 576.477 451.485C558.643 433.639 534.457 423.612 509.235 423.612C484.015 423.612 459.828 433.639 441.995 451.485C424.161 469.332 414.142 493.537 414.142 518.778C414.142 544.016 424.161 568.221 441.995 586.068C459.828 603.915 484.015 613.941 509.235 613.941Z" fill="#6D1515" fill-opacity="0.89"/>
<g clip-path="url(#clip0_63_24)">
<path d="M611.035 129.363C602.865 136.194 600.058 144.9 595.16 152.129C591.495 157.546 587.931 163.043 584.447 168.574C581.541 173.179 578.626 177.227 579.079 183.741C579.43 188.691 575.496 194.108 572.967 199.067C553.413 237.318 533.751 275.514 514.09 313.711C508.79 324.01 507.857 324.339 498.588 318.155C488.865 311.667 479.22 305.036 469.761 298.181C461.665 292.31 461.456 291.668 467.714 283.971C481.865 266.575 496.298 249.417 510.731 232.258C525.461 214.745 540.247 197.271 555.194 179.939C558.361 176.261 560.617 171.051 567.262 171.822C570.287 172.173 571.702 168.808 573.261 166.569C582.079 153.913 590.691 141.105 599.672 128.573C603.278 123.54 603.217 119.911 598.692 115.235C589.498 105.733 580.983 95.5808 570.948 84.2946C578.267 83.178 582.257 86.1667 586.276 87.7343C655.858 114.939 725.349 142.423 794.927 169.678C802.467 172.634 808.685 176.78 814.38 182.659C868.313 238.375 922.502 293.842 976.592 349.406C977.752 350.593 979.603 351.396 979.284 354.991C938.561 344.911 899.071 331.473 859.583 318.784C856.107 324.332 858.181 328.981 858.406 333.439C859.308 351.658 860.298 369.886 857.777 388.028C856.157 399.681 854.441 400.557 845.079 394.733C821.617 380.139 795.566 372.931 768.752 368.326C746.666 364.534 724.431 361.468 702.173 358.823C689.654 357.337 682.863 352.234 678.921 339.263C667.913 303.011 644.59 274.392 617.916 248.277C611.579 242.068 605.209 235.846 599.489 229.09C593.918 222.509 594.373 218.987 601.44 214.214C606.811 210.589 612.782 207.596 618.849 205.304C631.08 200.67 643.564 196.72 655.935 192.453C658.9 191.435 662.342 191.318 665.387 187.411C647.296 168.083 629.298 148.861 611.035 129.363Z" fill="#231F20"/>
</g>
<defs>
<clipPath id="clip0_63_24">
<rect width="489.842" height="292.367" fill="white" transform="translate(604.339 36) rotate(34.6763)"/>
</clipPath>
</defs>
</svg>
